<mxfile host="drawio-plugin" modified="2024-02-27T14:14:38.555Z" agent="5.0 (Macintosh; Intel Mac OS X 10_15_7) AppleWebKit/537.36 (KHTML, like Gecko) Chrome/111.0.0.0 Safari/537.36" version="20.5.3" etag="KDKN2CjMfvYQRDqGTOFO" type="embed"><diagram id="iPHwZYTDBBxKtX4TNN0v" name="Page-1"><mxGraphModel dx="924" dy="467" grid="1" gridSize="10" guides="1" tooltips="1" connect="1" arrows="1" fold="1" page="1" pageScale="1" pageWidth="850" pageHeight="1100" math="0" shadow="0"><root><mxCell id="0"/><mxCell id="1" parent="0"/><mxCell id="25" value="" style="rounded=0;whiteSpace=wrap;html=1;dashed=1;strokeWidth=2;fillColor=#C4C4C4;" vertex="1" parent="1"><mxGeometry x="460" y="70" width="320" height="570" as="geometry"/></mxCell><mxCell id="19" style="edgeStyle=orthogonalEdgeStyle;rounded=0;orthogonalLoop=1;jettySize=auto;html=1;exitX=1;exitY=0.5;exitDx=0;exitDy=0;entryX=0;entryY=0.5;entryDx=0;entryDy=0;" edge="1" parent="1" source="2" target="3"><mxGeometry relative="1" as="geometry"/></mxCell><mxCell id="2" value="User input" style="rounded=1;whiteSpace=wrap;html=1;strokeColor=#66CC00;" vertex="1" parent="1"><mxGeometry x="20" y="230" width="120" height="60" as="geometry"/></mxCell><mxCell id="20" style="edgeStyle=orthogonalEdgeStyle;rounded=0;orthogonalLoop=1;jettySize=auto;html=1;exitX=0.5;exitY=1;exitDx=0;exitDy=0;entryX=0.5;entryY=0;entryDx=0;entryDy=0;startArrow=classic;startFill=1;" edge="1" parent="1" source="3" target="4"><mxGeometry relative="1" as="geometry"/></mxCell><mxCell id="36" value="uses" style="edgeLabel;html=1;align=center;verticalAlign=middle;resizable=0;points=[];" vertex="1" connectable="0" parent="20"><mxGeometry x="0.12" y="-1" relative="1" as="geometry"><mxPoint as="offset"/></mxGeometry></mxCell><mxCell id="32" style="edgeStyle=orthogonalEdgeStyle;curved=1;rounded=0;orthogonalLoop=1;jettySize=auto;html=1;startArrow=none;startFill=0;" edge="1" parent="1" source="3" target="6"><mxGeometry relative="1" as="geometry"/></mxCell><mxCell id="33" value="invokes" style="edgeLabel;html=1;align=center;verticalAlign=middle;resizable=0;points=[];" vertex="1" connectable="0" parent="32"><mxGeometry x="-0.1443" y="-2" relative="1" as="geometry"><mxPoint y="1" as="offset"/></mxGeometry></mxCell><mxCell id="34" style="edgeStyle=orthogonalEdgeStyle;curved=1;rounded=0;orthogonalLoop=1;jettySize=auto;html=1;entryX=0;entryY=0.5;entryDx=0;entryDy=0;startArrow=none;startFill=0;" edge="1" parent="1" source="3" target="5"><mxGeometry relative="1" as="geometry"/></mxCell><mxCell id="35" value="consults" style="edgeLabel;html=1;align=center;verticalAlign=middle;resizable=0;points=[];" vertex="1" connectable="0" parent="34"><mxGeometry x="-0.16" y="10" relative="1" as="geometry"><mxPoint x="1" as="offset"/></mxGeometry></mxCell><mxCell id="3" value="Agents for Amazon Bedrock" style="rounded=0;whiteSpace=wrap;html=1;" vertex="1" parent="1"><mxGeometry x="190" y="230" width="120" height="60" as="geometry"/></mxCell><mxCell id="4" value="LLM" style="rounded=0;whiteSpace=wrap;html=1;" vertex="1" parent="1"><mxGeometry x="190" y="340" width="120" height="60" as="geometry"/></mxCell><mxCell id="30" style="edgeStyle=orthogonalEdgeStyle;curved=1;rounded=0;orthogonalLoop=1;jettySize=auto;html=1;entryX=0.5;entryY=0;entryDx=0;entryDy=0;startArrow=none;startFill=0;strokeColor=#000000;" edge="1" parent="1" source="5" target="6"><mxGeometry relative="1" as="geometry"/></mxCell><mxCell id="31" value="&lt;font style=&quot;background-color: rgb(196, 196, 196);&quot; color=&quot;#000000&quot;&gt;automatically generated from&lt;/font&gt;" style="edgeLabel;html=1;align=center;verticalAlign=middle;resizable=0;points=[];" vertex="1" connectable="0" parent="30"><mxGeometry x="-0.01" y="-1" relative="1" as="geometry"><mxPoint as="offset"/></mxGeometry></mxCell><mxCell id="5" value="&lt;font color=&quot;#ffffff&quot;&gt;OpenAPI schema&lt;/font&gt;" style="rounded=0;whiteSpace=wrap;html=1;fillColor=#4D4D4D;" vertex="1" parent="1"><mxGeometry x="505" y="90" width="230" height="50" as="geometry"/></mxCell><mxCell id="17" value="" style="group;fillColor=#f0a30a;fontColor=#000000;strokeColor=#BD7000;container=0;" vertex="1" connectable="0" parent="1"><mxGeometry x="480" y="240" width="280" height="380" as="geometry"/></mxCell><mxCell id="26" value="Action Group" style="text;html=1;strokeColor=none;fillColor=none;align=center;verticalAlign=middle;whiteSpace=wrap;rounded=0;dashed=1;strokeWidth=2;" vertex="1" parent="1"><mxGeometry x="450" y="40" width="100" height="30" as="geometry"/></mxCell><mxCell id="6" value="" style="rounded=0;whiteSpace=wrap;html=1;fillColor=#4D4D4D;" vertex="1" parent="1"><mxGeometry x="480" y="240" width="280" height="380" as="geometry"/></mxCell><mxCell id="8" value="Parameter parsing" style="rounded=1;whiteSpace=wrap;html=1;" vertex="1" parent="1"><mxGeometry x="495" y="260" width="250" height="40" as="geometry"/></mxCell><mxCell id="9" value="Parameter validation" style="rounded=1;whiteSpace=wrap;html=1;" vertex="1" parent="1"><mxGeometry x="495" y="320" width="250" height="40" as="geometry"/></mxCell><mxCell id="10" value="Routing" style="rounded=1;whiteSpace=wrap;html=1;" vertex="1" parent="1"><mxGeometry x="495" y="380" width="250" height="40" as="geometry"/></mxCell><mxCell id="11" value="Your code" style="rounded=1;whiteSpace=wrap;html=1;fillColor=#f0a30a;fontColor=#000000;strokeColor=#BD7000;" vertex="1" parent="1"><mxGeometry x="495" y="440" width="250" height="40" as="geometry"/></mxCell><mxCell id="14" value="Response validation" style="rounded=1;whiteSpace=wrap;html=1;" vertex="1" parent="1"><mxGeometry x="495" y="500" width="250" height="40" as="geometry"/></mxCell><mxCell id="15" value="Response building" style="rounded=1;whiteSpace=wrap;html=1;" vertex="1" parent="1"><mxGeometry x="495" y="560" width="250" height="40" as="geometry"/></mxCell></root></mxGraphModel></diagram></mxfile>